<svg xmlns="http://www.w3.org/2000/svg" width="32.797" height="38.237" viewBox="0 0 32.797 38.237">
  <g id="Union_1" data-name="Union 1" fill="#fff">
    <path d="M 32.11121368408203 37.73747634887695 L 13.80471611022949 37.73747634887695 L 14.82436561584473 34.56716918945313 L 15.03441619873047 33.91407775878906 L 14.34837627410889 33.91407775878906 L 0.7386993169784546 33.91407775878906 L 13.77511501312256 1.345534563064575 L 19.76569557189941 16.31293869018555 L 20.28115653991699 17.60080909729004 L 20.70588493347168 16.28023910522461 L 22.95741653442383 9.279758453369141 L 32.11121368408203 37.73747634887695 Z" stroke="none"/>
    <path d="M 31.42515563964844 37.23747634887695 L 22.95744323730469 10.91268730163574 L 21.18186569213867 16.43332862854004 L 20.33241653442383 19.0744686126709 L 19.3014965057373 16.49872779846191 L 13.77509689331055 2.691078424453735 L 1.477408766746521 33.41407775878906 L 14.34837627410889 33.41407775878906 L 15.72044563293457 33.41407775878906 L 15.3003454208374 34.72025680541992 L 14.49074554443359 37.23747634887695 L 31.42515563964844 37.23747634887695 M 32.79727554321289 38.23747634887695 L 13.11867618560791 38.23747634887695 L 14.34837627410889 34.41407775878906 L -4.13574207414058e-06 34.41407775878906 L 13.77513599395752 -1.825561525947705e-06 L 20.22989654541016 16.12714767456055 L 22.9573860168457 7.64680814743042 L 32.79727554321289 38.23747634887695 Z" stroke="none" fill="#707070"/>
  </g>
</svg>
